<svg width="215" height="25" viewBox="0 0 215 25" fill="none" xmlns="http://www.w3.org/2000/svg">
<path d="M10.314 0C5.16101 0 0.996014 4.177 0.996014 9.318V9.45C1.51601 9.442 1.88301 9.376 2.18801 9.279C2.47301 9.188 2.71701 9.067 3.00801 8.913C3.11129 7.04535 3.92591 5.28816 5.28451 4.00247C6.64311 2.71678 8.44251 2.00021 10.313 2H16.837C20.738 2 23.934 5.064 24.153 8.916C24.441 9.069 24.683 9.189 24.965 9.279C25.271 9.377 25.64 9.443 26.165 9.45V9.316C26.155 4.176 21.981 0 16.838 0H10.314ZM24.505 13.057C24.2737 13.0047 24.0448 12.9423 23.819 12.87C23.231 12.682 22.679 12.405 22.165 12.147C22.0146 12.0708 21.8636 11.9958 21.712 11.922C21.259 11.704 20.789 11.549 19.925 11.549C19.277 11.549 18.719 11.683 18.151 11.93C17.9467 12.0226 17.7459 12.1227 17.549 12.23L17.536 12.236C17.324 12.348 17.089 12.472 16.83 12.589C16.2943 12.8347 15.7299 13.0121 15.15 13.117H24.505V13.057ZM2.13101 15L9.31301 16.61C12.11 17.238 15.021 17.238 17.819 16.61L25.001 15H25.246C26.219 15 27.071 15.862 27.071 17C27.071 18.138 26.219 19 25.246 19H1.89601C0.923014 19 0.0710144 18.138 0.0710144 17C0.0710144 15.862 0.923014 15 1.89601 15H2.13101ZM12.013 13.117H2.63601V13.082C3.65001 12.872 4.35401 12.499 4.95701 12.176L4.97701 12.166C5.33501 11.974 5.61201 11.827 5.94301 11.721C6.26701 11.618 6.66301 11.549 7.23701 11.549C7.81201 11.549 8.20601 11.618 8.52901 11.721C8.85901 11.826 9.13401 11.972 9.49101 12.164L9.51301 12.175C10.151 12.518 10.901 12.915 12.013 13.117Z" fill="#FF7629"/>
<path d="M16.778 3.772C16.778 3.97674 16.6967 4.1731 16.5519 4.31788C16.4071 4.46266 16.2107 4.544 16.006 4.544C15.8013 4.544 15.6049 4.46266 15.4601 4.31788C15.3153 4.1731 15.234 3.97674 15.234 3.772C15.234 3.56725 15.3153 3.37089 15.4601 3.22611C15.6049 3.08133 15.8013 3 16.006 3C16.2107 3 16.4071 3.08133 16.5519 3.22611C16.6967 3.37089 16.778 3.56725 16.778 3.772ZM11.136 4.543C11.2397 4.54673 11.343 4.52954 11.4399 4.49245C11.5367 4.45535 11.6251 4.39913 11.6998 4.32712C11.7744 4.25511 11.8338 4.1688 11.8743 4.07333C11.9149 3.97787 11.9358 3.87522 11.9358 3.7715C11.9358 3.66778 11.9149 3.56512 11.8743 3.46966C11.8338 3.3742 11.7744 3.28788 11.6998 3.21587C11.6251 3.14387 11.5367 3.08764 11.4399 3.05055C11.343 3.01346 11.2397 2.99626 11.136 3C10.9362 3.00719 10.747 3.09162 10.6082 3.23552C10.4693 3.37942 10.3918 3.57156 10.3918 3.7715C10.3918 3.97143 10.4693 4.16357 10.6082 4.30747C10.747 4.45137 10.9362 4.5358 11.136 4.543ZM19.464 5.936C19.464 6.14074 19.3827 6.33711 19.2379 6.48188C19.0931 6.62666 18.8967 6.708 18.692 6.708C18.4873 6.708 18.2909 6.62666 18.1461 6.48188C18.0013 6.33711 17.92 6.14074 17.92 5.936C17.92 5.73125 18.0013 5.53489 18.1461 5.39011C18.2909 5.24533 18.4873 5.164 18.692 5.164C18.8967 5.164 19.0931 5.24533 19.2379 5.39011C19.3827 5.53489 19.464 5.73125 19.464 5.936ZM8.45 6.708C8.55365 6.71173 8.65699 6.69454 8.75385 6.65745C8.85071 6.62035 8.93911 6.56413 9.01375 6.49212C9.0884 6.42011 9.14778 6.3338 9.18833 6.23833C9.22888 6.14287 9.24978 6.04022 9.24978 5.9365C9.24978 5.83278 9.22888 5.73012 9.18833 5.63466C9.14778 5.5392 9.0884 5.45288 9.01375 5.38087C8.93911 5.30887 8.85071 5.25264 8.75385 5.21555C8.65699 5.17846 8.55365 5.16126 8.45 5.165C8.25019 5.17219 8.06097 5.25662 7.92216 5.40052C7.78335 5.54442 7.70578 5.73656 7.70578 5.9365C7.70578 6.13643 7.78335 6.32857 7.92216 6.47247C8.06097 6.61637 8.25019 6.7008 8.45 6.708ZM13.571 7.59C13.7757 7.59 13.9721 7.50866 14.1169 7.36388C14.2617 7.21911 14.343 7.02274 14.343 6.818C14.343 6.61325 14.2617 6.41689 14.1169 6.27211C13.9721 6.12733 13.7757 6.046 13.571 6.046C13.3663 6.046 13.1699 6.12733 13.0251 6.27211C12.8803 6.41689 12.799 6.61325 12.799 6.818C12.799 7.02274 12.8803 7.21911 13.0251 7.36388C13.1699 7.50866 13.3663 7.59 13.571 7.59ZM1.136 21.176V19.89C1.377 19.961 1.631 19.999 1.896 19.999H3.136V21.175C3.136 22.272 3.926 22.999 4.712 22.999H22.41C23.197 22.999 23.997 22.269 24.005 21.16V20H25.245C25.51 20 25.765 19.962 26.005 19.891V21.171C25.992 23.203 24.468 25 22.411 25H4.711C2.651 25 1.135 23.2 1.135 21.176H1.136ZM7.237 8.75C5.438 8.75 4.49 9.254 3.646 9.706L3.611 9.724C3.267 9.908 2.917 10.096 2.492 10.231C2.054 10.371 1.554 10.451 0.894 10.451C0.402 10.451 0 10.851 0 11.351C0 11.849 0.402 12.25 0.894 12.25C2.693 12.25 3.641 11.746 4.485 11.294L4.52 11.276C4.864 11.092 5.214 10.904 5.64 10.769C6.077 10.629 6.577 10.549 7.237 10.549C7.897 10.549 8.395 10.629 8.833 10.769C9.257 10.903 9.606 11.091 9.949 11.275L9.985 11.294C10.829 11.746 11.777 12.25 13.581 12.25C14.887 12.25 15.741 11.985 16.417 11.678C16.649 11.573 16.862 11.461 17.079 11.347L17.084 11.344C17.298 11.232 17.522 11.114 17.752 11.014C18.4349 10.707 19.1753 10.5485 19.924 10.549C20.945 10.549 21.564 10.74 22.147 11.022C22.326 11.108 22.497 11.194 22.664 11.278C23.161 11.528 23.617 11.756 24.124 11.918C24.8136 12.1396 25.5337 12.2516 26.258 12.25C26.75 12.25 27.152 11.85 27.152 11.35C27.152 10.852 26.75 10.45 26.258 10.45C25.598 10.45 25.1 10.371 24.662 10.232C24.238 10.096 23.889 9.909 23.547 9.725L23.512 9.706C23.057 9.462 22.595 9.216 21.997 9.033C21.456 8.868 20.792 8.75 19.925 8.75C19.057 8.75 18.393 8.868 17.852 9.033C17.372 9.18 16.942 9.384 16.48 9.603C16.293 9.691 16.101 9.783 15.899 9.873C15.219 10.177 14.469 10.451 13.581 10.451C12.918 10.451 12.417 10.371 11.978 10.231C11.552 10.095 11.202 9.908 10.859 9.724L10.826 9.706C9.983 9.254 9.036 8.75 7.237 8.75ZM2.763 14.117H24.369L17.6 15.634C14.9433 16.2292 12.1877 16.2292 9.531 15.634L2.763 14.117Z" fill="#FF7629"/>
<path d="M42.9553 0C44.7408 0 46.3806 0.4281 47.8747 1.2845C49.3869 2.1226 50.5804 3.2796 51.4549 4.7554C52.3295 6.213 52.7668 7.8346 52.7668 9.6202C52.7668 11.4057 52.3295 13.0273 51.4549 14.4849C50.5804 15.9243 49.3869 17.0631 47.8747 17.9012C46.3806 18.7211 44.7408 19.131 42.9553 19.131H35.6581V0H42.9553ZM42.9553 16.2614C44.1942 16.2614 45.333 15.9699 46.3715 15.3868C47.4101 14.8038 48.23 14.0021 48.8312 12.9818C49.4325 11.9614 49.7331 10.8318 49.7331 9.5928C49.7331 8.3539 49.4325 7.2242 48.8312 6.2039C48.23 5.1654 47.4101 4.3546 46.3715 3.7715C45.333 3.1703 44.1942 2.8696 42.9553 2.8696H38.6918V16.2614H42.9553ZM64.473 5.466H67.3427V19.131H64.473V17.7645C63.9811 18.2747 63.4071 18.6938 62.7512 19.0217C62.1135 19.3315 61.4212 19.4863 60.6741 19.4863C59.8725 19.4863 59.0526 19.3224 58.2144 18.9944C57.3945 18.6482 56.6839 18.0378 56.0827 17.1633C55.4814 16.2887 55.1808 15.1135 55.1808 13.6377V5.466H58.0504V13.6377C58.0504 14.8038 58.3693 15.6419 59.007 16.1521C59.6629 16.6622 60.4282 16.9173 61.3027 16.9173C62.1591 16.9173 62.897 16.6167 63.5165 16.0154C64.1542 15.4141 64.473 14.4394 64.473 13.0911V5.466ZM78.696 5.138C80.063 5.138 81.265 5.4478 82.304 6.0673C83.343 6.6867 84.144 7.5431 84.709 8.6363C85.292 9.7295 85.584 10.9502 85.584 12.2985C85.584 13.6468 85.292 14.8675 84.709 15.9607C84.144 17.054 83.343 17.9194 82.304 18.5571C81.265 19.1766 80.063 19.4863 78.696 19.4863C77.804 19.4863 76.938 19.3132 76.1 18.9671C75.28 18.6027 74.5513 18.1016 73.9136 17.4639V24.5971H71.044V5.466H73.9136V7.1331C74.5513 6.5136 75.28 6.0308 76.1 5.6846C76.938 5.3202 77.804 5.138 78.696 5.138ZM78.341 16.6987C79.161 16.6987 79.899 16.5074 80.555 16.1247C81.229 15.7421 81.757 15.2228 82.14 14.5669C82.523 13.8928 82.714 13.1366 82.714 12.2985C82.714 11.4604 82.523 10.7043 82.14 10.0301C81.757 9.356 81.229 8.8276 80.555 8.445C79.899 8.0624 79.161 7.871 78.341 7.871C77.521 7.871 76.774 8.0624 76.1 8.445C75.426 8.8276 74.8884 9.3651 74.4876 10.0574C74.105 10.7316 73.9136 11.4877 73.9136 12.3258C73.9136 13.164 74.105 13.9201 74.4876 14.5942C74.8884 15.2502 75.426 15.7694 76.1 16.1521C76.774 16.5165 77.521 16.6987 78.341 16.6987ZM94.359 5.1107C95.689 5.1107 96.873 5.4387 97.912 6.0946C98.951 6.7323 99.761 7.6069 100.344 8.7183C100.927 9.8115 101.219 11.014 101.219 12.3258C101.219 12.5445 101.183 12.8907 101.11 13.3644H90.068C90.305 14.4576 90.815 15.3322 91.599 15.9881C92.4 16.644 93.412 16.972 94.632 16.972C95.379 16.972 96.09 16.808 96.764 16.48C97.457 16.1521 97.967 15.7239 98.295 15.1955L100.536 16.5074C99.916 17.4548 99.096 18.1927 98.076 18.7211C97.056 19.2313 95.89 19.4863 94.578 19.4863C93.12 19.4863 91.827 19.1766 90.697 18.5571C89.585 17.9376 88.72 17.0813 88.101 15.9881C87.499 14.8949 87.199 13.665 87.199 12.2985C87.199 10.9502 87.499 9.7295 88.101 8.6363C88.72 7.5431 89.567 6.6867 90.642 6.0673C91.735 5.4296 92.974 5.1107 94.359 5.1107ZM98.486 11.096C98.34 10.021 97.894 9.1738 97.147 8.5543C96.418 7.9348 95.489 7.6251 94.359 7.6251C93.576 7.6251 92.856 7.7891 92.2 8.117C91.544 8.4268 91.025 8.8549 90.642 9.4015C90.26 9.9299 90.059 10.4947 90.041 11.096H98.486ZM110.686 5.1654C110.887 5.1654 111.042 5.1745 111.151 5.1927L110.932 7.9257C110.732 7.871 110.541 7.8437 110.358 7.8437C109.229 7.8437 108.281 8.1899 107.516 8.8823C106.751 9.5564 106.368 10.513 106.368 11.7519V19.131H103.498V5.466H106.368V7.7891C106.678 7.0602 107.206 6.4408 107.953 5.9306C108.719 5.4204 109.63 5.1654 110.686 5.1654ZM132.468 9.0189C133.161 9.5291 133.698 10.1759 134.081 10.9593C134.482 11.7428 134.682 12.5809 134.682 13.4737C134.682 14.494 134.436 15.4324 133.944 16.2887C133.452 17.1451 132.787 17.8283 131.949 18.3385C131.111 18.8486 130.2 19.1037 129.216 19.1037H123.805V19.131H120.771V0H128.806C129.735 0 130.592 0.2368 131.375 0.7106C132.159 1.1843 132.778 1.8311 133.234 2.651C133.707 3.4527 133.944 4.3181 133.944 5.2474C133.944 5.9397 133.808 6.6139 133.534 7.2698C133.279 7.9257 132.924 8.5087 132.468 9.0189ZM123.805 2.897V7.9257L128.806 7.8984C129.426 7.8984 129.972 7.6524 130.446 7.1605C130.92 6.6503 131.157 6.049 131.157 5.3567C131.157 4.6643 130.92 4.0813 130.446 3.6075C129.99 3.1338 129.444 2.897 128.806 2.897H123.805ZM129.216 16.2067C129.927 16.2067 130.528 15.9334 131.02 15.3868C131.53 14.8402 131.785 14.1934 131.785 13.4464C131.785 12.6994 131.53 12.0525 131.02 11.5059C130.528 10.9593 129.927 10.686 129.216 10.686H123.805V16.2067H129.216ZM145.903 5.466H148.772V19.131H145.903V17.7645C145.411 18.2747 144.837 18.6938 144.181 19.0217C143.543 19.3315 142.851 19.4863 142.104 19.4863C141.302 19.4863 140.482 19.3224 139.644 18.9944C138.824 18.6482 138.114 18.0378 137.512 17.1633C136.911 16.2887 136.611 15.1135 136.611 13.6377V5.466H139.48V13.6377C139.48 14.8038 139.799 15.6419 140.437 16.1521C141.093 16.6622 141.858 16.9173 142.733 16.9173C143.589 16.9173 144.327 16.6167 144.946 16.0154C145.584 15.4141 145.903 14.4394 145.903 13.0911V5.466ZM159.662 5.1654C159.862 5.1654 160.017 5.1745 160.126 5.1927L159.908 7.9257C159.707 7.871 159.516 7.8437 159.334 7.8437C158.204 7.8437 157.257 8.1899 156.491 8.8823C155.726 9.5564 155.343 10.513 155.343 11.7519V19.131H152.474V5.466H155.343V7.7891C155.653 7.0602 156.182 6.4408 156.929 5.9306C157.694 5.4204 158.605 5.1654 159.662 5.1654ZM173.016 5.466H175.886V18.4478C175.886 19.7414 175.567 20.8802 174.929 21.8641C174.291 22.8479 173.408 23.6041 172.278 24.1324C171.167 24.679 169.909 24.9524 168.507 24.9524C166.921 24.9524 165.5 24.6517 164.243 24.0505C163.004 23.4492 162.12 22.6475 161.592 21.6454L164.052 20.2242C164.343 20.8073 164.881 21.2992 165.664 21.7001C166.466 22.1009 167.441 22.3013 168.589 22.3013C169.882 22.3013 170.939 21.946 171.759 21.2355C172.597 20.5249 173.016 19.5957 173.016 18.4478V17.4912C172.378 18.1107 171.64 18.6027 170.802 18.9671C169.982 19.3132 169.126 19.4863 168.233 19.4863C166.867 19.4863 165.664 19.1766 164.626 18.5571C163.587 17.9194 162.776 17.0631 162.193 15.9881C161.628 14.8949 161.346 13.6741 161.346 12.3258C161.346 10.9776 161.628 9.7568 162.193 8.6636C162.776 7.5704 163.587 6.7141 164.626 6.0946C165.664 5.4569 166.867 5.138 168.233 5.138C169.126 5.138 169.982 5.3202 170.802 5.6846C171.64 6.0308 172.378 6.5228 173.016 7.1605V5.466ZM168.589 16.726C169.408 16.726 170.155 16.5347 170.83 16.1521C171.504 15.7694 172.032 15.2411 172.415 14.5669C172.816 13.8928 173.016 13.1366 173.016 12.2985C173.016 11.4604 172.816 10.7134 172.415 10.0574C172.032 9.3833 171.504 8.864 170.83 8.4996C170.155 8.117 169.408 7.9257 168.589 7.9257C167.769 7.9257 167.022 8.117 166.347 8.4996C165.692 8.864 165.172 9.3833 164.79 10.0574C164.407 10.7316 164.216 11.4877 164.216 12.3258C164.216 13.164 164.407 13.9201 164.79 14.5942C165.172 15.2684 165.692 15.7968 166.347 16.1794C167.022 16.5438 167.769 16.726 168.589 16.726ZM185.397 5.1107C186.727 5.1107 187.912 5.4387 188.95 6.0946C189.989 6.7323 190.799 7.6069 191.382 8.7183C191.965 9.8115 192.257 11.014 192.257 12.3258C192.257 12.5445 192.221 12.8907 192.148 13.3644H181.106C181.343 14.4576 181.853 15.3322 182.637 15.9881C183.438 16.644 184.45 16.972 185.67 16.972C186.417 16.972 187.128 16.808 187.802 16.48C188.495 16.1521 189.005 15.7239 189.333 15.1955L191.574 16.5074C190.954 17.4548 190.134 18.1927 189.114 18.7211C188.094 19.2313 186.928 19.4863 185.616 19.4863C184.158 19.4863 182.865 19.1766 181.735 18.5571C180.623 17.9376 179.758 17.0813 179.139 15.9881C178.537 14.8949 178.237 13.665 178.237 12.2985C178.237 10.9502 178.537 9.7295 179.139 8.6363C179.758 7.5431 180.605 6.6867 181.68 6.0673C182.773 5.4296 184.012 5.1107 185.397 5.1107ZM189.524 11.096C189.378 10.021 188.932 9.1738 188.185 8.5543C187.456 7.9348 186.527 7.6251 185.397 7.6251C184.614 7.6251 183.894 7.7891 183.238 8.117C182.582 8.4268 182.063 8.8549 181.68 9.4015C181.298 9.9299 181.097 10.4947 181.079 11.096H189.524ZM201.724 5.1654C201.925 5.1654 202.08 5.1745 202.189 5.1927L201.97 7.9257C201.77 7.871 201.579 7.8437 201.396 7.8437C200.267 7.8437 199.319 8.1899 198.554 8.8823C197.789 9.5564 197.406 10.513 197.406 11.7519V19.131H194.537V5.466H197.406V7.7891C197.716 7.0602 198.244 6.4408 198.991 5.9306C199.757 5.4204 200.668 5.1654 201.724 5.1654ZM206.31 9.2375C206.31 9.693 206.537 10.0301 206.993 10.2488C207.467 10.4492 208.223 10.6769 209.261 10.932C210.318 11.1689 211.193 11.424 211.885 11.6973C212.577 11.9523 213.169 12.3623 213.661 12.9271C214.172 13.4919 214.427 14.2572 214.427 15.2228C214.427 16.0974 214.172 16.8626 213.661 17.5186C213.151 18.1563 212.459 18.6482 211.584 18.9944C210.728 19.3224 209.78 19.4863 208.742 19.4863C207.339 19.4863 206.136 19.213 205.134 18.6664C204.132 18.1016 203.403 17.3181 202.948 16.316L205.298 15.0862C205.572 15.7785 206 16.2978 206.583 16.644C207.184 16.972 207.904 17.1359 208.742 17.1359C209.525 17.1359 210.2 16.972 210.764 16.644C211.347 16.316 211.639 15.8514 211.639 15.2502C211.639 14.7218 211.375 14.3392 210.846 14.1023C210.336 13.8472 209.525 13.583 208.414 13.3097C207.339 13.0364 206.474 12.7813 205.818 12.5445C205.18 12.2894 204.624 11.9068 204.15 11.3966C203.677 10.8682 203.44 10.1759 203.44 9.3195C203.44 8.4814 203.677 7.7435 204.15 7.1058C204.624 6.4681 205.262 5.9762 206.064 5.63C206.865 5.2838 207.758 5.1107 208.742 5.1107C209.908 5.1107 210.947 5.3658 211.858 5.8759C212.787 6.3679 213.497 7.0602 213.989 7.953L211.639 9.1282C211.129 8.0168 210.163 7.4611 208.742 7.4611C207.995 7.4611 207.403 7.6251 206.965 7.953C206.528 8.2628 206.31 8.6909 206.31 9.2375Z" fill="#131313"/>
</svg>
