<svg width="215" height="26" viewBox="0 0 215 26" fill="none" xmlns="http://www.w3.org/2000/svg">
<path d="M10.314 0C5.16101 0 0.996014 4.177 0.996014 9.318V9.45C1.51601 9.442 1.88301 9.376 2.18801 9.279C2.47301 9.188 2.71701 9.067 3.00801 8.913C3.11129 7.04535 3.92591 5.28816 5.28451 4.00247C6.64311 2.71678 8.44251 2.00021 10.313 2H16.837C20.738 2 23.934 5.064 24.153 8.916C24.441 9.069 24.683 9.189 24.965 9.279C25.271 9.377 25.64 9.443 26.165 9.45V9.316C26.155 4.176 21.981 0 16.838 0H10.314ZM24.505 13.057C24.2737 13.0047 24.0448 12.9423 23.819 12.87C23.231 12.682 22.679 12.405 22.165 12.147C22.0146 12.0708 21.8636 11.9958 21.712 11.922C21.259 11.704 20.789 11.549 19.925 11.549C19.277 11.549 18.719 11.683 18.151 11.93C17.9467 12.0226 17.7459 12.1227 17.549 12.23L17.536 12.236C17.324 12.348 17.089 12.472 16.83 12.589C16.2943 12.8347 15.7299 13.0121 15.15 13.117H24.505V13.057ZM2.13101 15L9.31301 16.61C12.11 17.238 15.021 17.238 17.819 16.61L25.001 15H25.246C26.219 15 27.071 15.862 27.071 17C27.071 18.138 26.219 19 25.246 19H1.89601C0.923014 19 0.0710144 18.138 0.0710144 17C0.0710144 15.862 0.923014 15 1.89601 15H2.13101ZM12.013 13.117H2.63601V13.082C3.65001 12.872 4.35401 12.499 4.95701 12.176L4.97701 12.166C5.33501 11.974 5.61201 11.827 5.94301 11.721C6.26701 11.618 6.66301 11.549 7.23701 11.549C7.81201 11.549 8.20601 11.618 8.52901 11.721C8.85901 11.826 9.13401 11.972 9.49101 12.164L9.51301 12.175C10.151 12.518 10.901 12.915 12.013 13.117Z" fill="white"/>
<path d="M16.778 3.772C16.778 3.97674 16.6967 4.1731 16.5519 4.31788C16.4071 4.46266 16.2107 4.544 16.006 4.544C15.8013 4.544 15.6049 4.46266 15.4601 4.31788C15.3153 4.1731 15.234 3.97674 15.234 3.772C15.234 3.56725 15.3153 3.37089 15.4601 3.22611C15.6049 3.08133 15.8013 3 16.006 3C16.2107 3 16.4071 3.08133 16.5519 3.22611C16.6967 3.37089 16.778 3.56725 16.778 3.772ZM11.136 4.543C11.2397 4.54673 11.343 4.52954 11.4399 4.49245C11.5367 4.45535 11.6251 4.39913 11.6998 4.32712C11.7744 4.25511 11.8338 4.1688 11.8743 4.07333C11.9149 3.97787 11.9358 3.87522 11.9358 3.7715C11.9358 3.66778 11.9149 3.56512 11.8743 3.46966C11.8338 3.3742 11.7744 3.28788 11.6998 3.21587C11.6251 3.14387 11.5367 3.08764 11.4399 3.05055C11.343 3.01346 11.2397 2.99626 11.136 3C10.9362 3.00719 10.747 3.09162 10.6082 3.23552C10.4693 3.37942 10.3918 3.57156 10.3918 3.7715C10.3918 3.97143 10.4693 4.16357 10.6082 4.30747C10.747 4.45137 10.9362 4.5358 11.136 4.543ZM19.464 5.936C19.464 6.14074 19.3827 6.33711 19.2379 6.48188C19.0931 6.62666 18.8967 6.708 18.692 6.708C18.4873 6.708 18.2909 6.62666 18.1461 6.48188C18.0013 6.33711 17.92 6.14074 17.92 5.936C17.92 5.73125 18.0013 5.53489 18.1461 5.39011C18.2909 5.24533 18.4873 5.164 18.692 5.164C18.8967 5.164 19.0931 5.24533 19.2379 5.39011C19.3827 5.53489 19.464 5.73125 19.464 5.936ZM8.45 6.708C8.55365 6.71173 8.65699 6.69454 8.75385 6.65745C8.85071 6.62035 8.93911 6.56413 9.01375 6.49212C9.0884 6.42011 9.14778 6.3338 9.18833 6.23833C9.22888 6.14287 9.24978 6.04022 9.24978 5.9365C9.24978 5.83278 9.22888 5.73012 9.18833 5.63466C9.14778 5.5392 9.0884 5.45288 9.01375 5.38087C8.93911 5.30887 8.85071 5.25264 8.75385 5.21555C8.65699 5.17846 8.55365 5.16126 8.45 5.165C8.25019 5.17219 8.06097 5.25662 7.92216 5.40052C7.78335 5.54442 7.70578 5.73656 7.70578 5.9365C7.70578 6.13643 7.78335 6.32857 7.92216 6.47247C8.06097 6.61637 8.25019 6.7008 8.45 6.708ZM13.571 7.59C13.7757 7.59 13.9721 7.50866 14.1169 7.36388C14.2617 7.21911 14.343 7.02274 14.343 6.818C14.343 6.61325 14.2617 6.41689 14.1169 6.27211C13.9721 6.12733 13.7757 6.046 13.571 6.046C13.3663 6.046 13.1699 6.12733 13.0251 6.27211C12.8803 6.41689 12.799 6.61325 12.799 6.818C12.799 7.02274 12.8803 7.21911 13.0251 7.36388C13.1699 7.50866 13.3663 7.59 13.571 7.59ZM1.136 21.176V19.89C1.377 19.961 1.631 19.999 1.896 19.999H3.136V21.175C3.136 22.272 3.926 22.999 4.712 22.999H22.41C23.197 22.999 23.997 22.269 24.005 21.16V20H25.245C25.51 20 25.765 19.962 26.005 19.891V21.171C25.992 23.203 24.468 25 22.411 25H4.711C2.651 25 1.135 23.2 1.135 21.176H1.136ZM7.237 8.75C5.438 8.75 4.49 9.254 3.646 9.706L3.611 9.724C3.267 9.908 2.917 10.096 2.492 10.231C2.054 10.371 1.554 10.451 0.894 10.451C0.402 10.451 0 10.851 0 11.351C0 11.849 0.402 12.25 0.894 12.25C2.693 12.25 3.641 11.746 4.485 11.294L4.52 11.276C4.864 11.092 5.214 10.904 5.64 10.769C6.077 10.629 6.577 10.549 7.237 10.549C7.897 10.549 8.395 10.629 8.833 10.769C9.257 10.903 9.606 11.091 9.949 11.275L9.985 11.294C10.829 11.746 11.777 12.25 13.581 12.25C14.887 12.25 15.741 11.985 16.417 11.678C16.649 11.573 16.862 11.461 17.079 11.347L17.084 11.344C17.298 11.232 17.522 11.114 17.752 11.014C18.4349 10.707 19.1753 10.5485 19.924 10.549C20.945 10.549 21.564 10.74 22.147 11.022C22.326 11.108 22.497 11.194 22.664 11.278C23.161 11.528 23.617 11.756 24.124 11.918C24.8136 12.1396 25.5337 12.2516 26.258 12.25C26.75 12.25 27.152 11.85 27.152 11.35C27.152 10.852 26.75 10.45 26.258 10.45C25.598 10.45 25.1 10.371 24.662 10.232C24.238 10.096 23.889 9.909 23.547 9.725L23.512 9.706C23.057 9.462 22.595 9.216 21.997 9.033C21.456 8.868 20.792 8.75 19.925 8.75C19.057 8.75 18.393 8.868 17.852 9.033C17.372 9.18 16.942 9.384 16.48 9.603C16.293 9.691 16.101 9.783 15.899 9.873C15.219 10.177 14.469 10.451 13.581 10.451C12.918 10.451 12.417 10.371 11.978 10.231C11.552 10.095 11.202 9.908 10.859 9.724L10.826 9.706C9.983 9.254 9.036 8.75 7.237 8.75ZM2.763 14.117H24.369L17.6 15.634C14.9433 16.2292 12.1877 16.2292 9.531 15.634L2.763 14.117Z" fill="white"/>
<path d="M42.9551 0.300598C44.7406 0.300598 46.3804 0.728698 47.8745 1.5851C49.3867 2.4232 50.5802 3.5802 51.4547 5.056C52.3293 6.5136 52.7666 8.1352 52.7666 9.9208C52.7666 11.7063 52.3293 13.3279 51.4547 14.7855C50.5802 16.2249 49.3867 17.3637 47.8745 18.2018C46.3804 19.0217 44.7406 19.4316 42.9551 19.4316H35.6579V0.300598H42.9551ZM42.9551 16.562C44.194 16.562 45.3328 16.2705 46.3713 15.6874C47.4099 15.1044 48.2298 14.3027 48.831 13.2824C49.4323 12.262 49.7329 11.1324 49.7329 9.8934C49.7329 8.6545 49.4323 7.5248 48.831 6.5045C48.2298 5.466 47.4099 4.6552 46.3713 4.0721C45.3328 3.4709 44.194 3.1702 42.9551 3.1702H38.6916V16.562H42.9551ZM64.4728 5.7666H67.3425V19.4316H64.4728V18.0651C63.9809 18.5753 63.4069 18.9944 62.751 19.3223C62.1133 19.6321 61.421 19.7869 60.6739 19.7869C59.8723 19.7869 59.0524 19.623 58.2142 19.295C57.3943 18.9488 56.6837 18.3384 56.0825 17.4639C55.4812 16.5893 55.1806 15.4141 55.1806 13.9383V5.7666H58.0502V13.9383C58.0502 15.1044 58.3691 15.9425 59.0068 16.4527C59.6627 16.9628 60.428 17.2179 61.3025 17.2179C62.1589 17.2179 62.8968 16.9173 63.5163 16.316C64.154 15.7147 64.4728 14.74 64.4728 13.3917V5.7666ZM78.6958 5.4386C80.0628 5.4386 81.2648 5.7484 82.3038 6.3679C83.3428 6.9873 84.1438 7.8437 84.7088 8.9369C85.2918 10.0301 85.5838 11.2508 85.5838 12.5991C85.5838 13.9474 85.2918 15.1681 84.7088 16.2613C84.1438 17.3546 83.3428 18.22 82.3038 18.8577C81.2648 19.4772 80.0628 19.7869 78.6958 19.7869C77.8038 19.7869 76.9378 19.6138 76.0998 19.2677C75.2798 18.9033 74.5511 18.4022 73.9134 17.7645V24.8977H71.0438V5.7666H73.9134V7.4337C74.5511 6.8142 75.2798 6.3314 76.0998 5.9852C76.9378 5.6208 77.8038 5.4386 78.6958 5.4386ZM78.3408 16.9993C79.1608 16.9993 79.8988 16.808 80.5548 16.4253C81.2288 16.0427 81.7568 15.5234 82.1398 14.8675C82.5228 14.1934 82.7138 13.4372 82.7138 12.5991C82.7138 11.761 82.5228 11.0049 82.1398 10.3307C81.7568 9.6566 81.2288 9.1282 80.5548 8.7456C79.8988 8.363 79.1608 8.1716 78.3408 8.1716C77.5208 8.1716 76.7738 8.363 76.0998 8.7456C75.4258 9.1282 74.8882 9.6657 74.4874 10.358C74.1048 11.0322 73.9134 11.7883 73.9134 12.6264C73.9134 13.4646 74.1048 14.2207 74.4874 14.8948C74.8882 15.5508 75.4258 16.07 76.0998 16.4527C76.7738 16.8171 77.5208 16.9993 78.3408 16.9993ZM94.3588 5.4113C95.6888 5.4113 96.8728 5.7393 97.9118 6.3952C98.9508 7.0329 99.7608 7.9075 100.344 9.0189C100.927 10.1121 101.219 11.3146 101.219 12.6264C101.219 12.8451 101.183 13.1913 101.11 13.665H90.0678C90.3048 14.7582 90.8148 15.6328 91.5988 16.2887C92.3998 16.9446 93.4118 17.2726 94.6318 17.2726C95.3788 17.2726 96.0898 17.1086 96.7638 16.7806C97.4568 16.4527 97.9668 16.0245 98.2948 15.4961L100.536 16.808C99.9158 17.7554 99.0958 18.4933 98.0758 19.0217C97.0558 19.5319 95.8898 19.7869 94.5778 19.7869C93.1198 19.7869 91.8268 19.4772 90.6968 18.8577C89.5848 18.2382 88.7198 17.3819 88.1008 16.2887C87.4988 15.1955 87.1988 13.9656 87.1988 12.5991C87.1988 11.2508 87.4988 10.0301 88.1008 8.9369C88.7198 7.8437 89.5668 6.9873 90.6418 6.3679C91.7348 5.7302 92.9738 5.4113 94.3588 5.4113ZM98.4858 11.3966C98.3398 10.3216 97.8938 9.4744 97.1468 8.8549C96.4178 8.2354 95.4888 7.9257 94.3588 7.9257C93.5758 7.9257 92.8558 8.0897 92.1998 8.4176C91.5438 8.7274 91.0248 9.1555 90.6418 9.7021C90.2598 10.2305 90.0588 10.7953 90.0408 11.3966H98.4858ZM110.686 5.466C110.887 5.466 111.042 5.4751 111.151 5.4933L110.932 8.2263C110.732 8.1716 110.541 8.1443 110.358 8.1443C109.229 8.1443 108.281 8.4905 107.516 9.1829C106.751 9.857 106.368 10.8136 106.368 12.0525V19.4316H103.498V5.7666H106.368V8.0897C106.678 7.3608 107.206 6.7414 107.953 6.2312C108.719 5.721 109.63 5.466 110.686 5.466ZM132.468 9.3195C133.161 9.8297 133.698 10.4765 134.081 11.2599C134.482 12.0434 134.682 12.8815 134.682 13.7743C134.682 14.7946 134.436 15.733 133.944 16.5893C133.452 17.4457 132.787 18.1289 131.949 18.6391C131.111 19.1492 130.2 19.4043 129.216 19.4043H123.805V19.4316H120.771V0.300598H128.806C129.735 0.300598 130.592 0.537398 131.375 1.0112C132.159 1.4849 132.778 2.1317 133.234 2.9516C133.707 3.7533 133.944 4.6187 133.944 5.548C133.944 6.2403 133.808 6.9145 133.534 7.5704C133.279 8.2263 132.924 8.8093 132.468 9.3195ZM123.805 3.1976V8.2263L128.806 8.199C129.426 8.199 129.972 7.953 130.446 7.4611C130.92 6.9509 131.157 6.3496 131.157 5.6573C131.157 4.9649 130.92 4.3819 130.446 3.9081C129.99 3.4344 129.444 3.1976 128.806 3.1976H123.805ZM129.216 16.5073C129.927 16.5073 130.528 16.234 131.02 15.6874C131.53 15.1408 131.785 14.494 131.785 13.747C131.785 13 131.53 12.3531 131.02 11.8065C130.528 11.2599 129.927 10.9866 129.216 10.9866H123.805V16.5073H129.216ZM145.903 5.7666H148.772V19.4316H145.903V18.0651C145.411 18.5753 144.837 18.9944 144.181 19.3223C143.543 19.6321 142.851 19.7869 142.104 19.7869C141.302 19.7869 140.482 19.623 139.644 19.295C138.824 18.9488 138.114 18.3384 137.512 17.4639C136.911 16.5893 136.611 15.4141 136.611 13.9383V5.7666H139.48V13.9383C139.48 15.1044 139.799 15.9425 140.437 16.4527C141.093 16.9628 141.858 17.2179 142.733 17.2179C143.589 17.2179 144.327 16.9173 144.946 16.316C145.584 15.7147 145.903 14.74 145.903 13.3917V5.7666ZM159.662 5.466C159.862 5.466 160.017 5.4751 160.126 5.4933L159.908 8.2263C159.707 8.1716 159.516 8.1443 159.334 8.1443C158.204 8.1443 157.257 8.4905 156.491 9.1829C155.726 9.857 155.343 10.8136 155.343 12.0525V19.4316H152.474V5.7666H155.343V8.0897C155.653 7.3608 156.182 6.7414 156.929 6.2312C157.694 5.721 158.605 5.466 159.662 5.466ZM173.016 5.7666H175.886V18.7484C175.886 20.042 175.567 21.1808 174.929 22.1647C174.291 23.1485 173.408 23.9047 172.278 24.433C171.167 24.9796 169.909 25.253 168.507 25.253C166.921 25.253 165.5 24.9523 164.243 24.3511C163.004 23.7498 162.12 22.9481 161.592 21.946L164.052 20.5248C164.343 21.1079 164.881 21.5998 165.664 22.0007C166.466 22.4015 167.441 22.6019 168.589 22.6019C169.882 22.6019 170.939 22.2466 171.759 21.5361C172.597 20.8255 173.016 19.8963 173.016 18.7484V17.7918C172.378 18.4113 171.64 18.9033 170.802 19.2677C169.982 19.6138 169.126 19.7869 168.233 19.7869C166.867 19.7869 165.664 19.4772 164.626 18.8577C163.587 18.22 162.776 17.3637 162.193 16.2887C161.628 15.1955 161.346 13.9747 161.346 12.6264C161.346 11.2782 161.628 10.0574 162.193 8.9642C162.776 7.871 163.587 7.0147 164.626 6.3952C165.664 5.7575 166.867 5.4386 168.233 5.4386C169.126 5.4386 169.982 5.6208 170.802 5.9852C171.64 6.3314 172.378 6.8234 173.016 7.4611V5.7666ZM168.589 17.0266C169.408 17.0266 170.155 16.8353 170.83 16.4527C171.504 16.07 172.032 15.5417 172.415 14.8675C172.816 14.1934 173.016 13.4372 173.016 12.5991C173.016 11.761 172.816 11.014 172.415 10.358C172.032 9.6839 171.504 9.1646 170.83 8.8002C170.155 8.4176 169.408 8.2263 168.589 8.2263C167.769 8.2263 167.022 8.4176 166.347 8.8002C165.692 9.1646 165.172 9.6839 164.79 10.358C164.407 11.0322 164.216 11.7883 164.216 12.6264C164.216 13.4646 164.407 14.2207 164.79 14.8948C165.172 15.569 165.692 16.0974 166.347 16.48C167.022 16.8444 167.769 17.0266 168.589 17.0266ZM185.397 5.4113C186.727 5.4113 187.912 5.7393 188.95 6.3952C189.989 7.0329 190.799 7.9075 191.382 9.0189C191.965 10.1121 192.257 11.3146 192.257 12.6264C192.257 12.8451 192.221 13.1913 192.148 13.665H181.106C181.343 14.7582 181.853 15.6328 182.637 16.2887C183.438 16.9446 184.45 17.2726 185.67 17.2726C186.417 17.2726 187.128 17.1086 187.802 16.7806C188.495 16.4527 189.005 16.0245 189.333 15.4961L191.574 16.808C190.954 17.7554 190.134 18.4933 189.114 19.0217C188.094 19.5319 186.928 19.7869 185.616 19.7869C184.158 19.7869 182.865 19.4772 181.735 18.8577C180.623 18.2382 179.758 17.3819 179.139 16.2887C178.537 15.1955 178.237 13.9656 178.237 12.5991C178.237 11.2508 178.537 10.0301 179.139 8.9369C179.758 7.8437 180.605 6.9873 181.68 6.3679C182.773 5.7302 184.012 5.4113 185.397 5.4113ZM189.524 11.3966C189.378 10.3216 188.932 9.4744 188.185 8.8549C187.456 8.2354 186.527 7.9257 185.397 7.9257C184.614 7.9257 183.894 8.0897 183.238 8.4176C182.582 8.7274 182.063 9.1555 181.68 9.7021C181.298 10.2305 181.097 10.7953 181.079 11.3966H189.524ZM201.724 5.466C201.925 5.466 202.08 5.4751 202.189 5.4933L201.97 8.2263C201.77 8.1716 201.579 8.1443 201.396 8.1443C200.267 8.1443 199.319 8.4905 198.554 9.1829C197.789 9.857 197.406 10.8136 197.406 12.0525V19.4316H194.537V5.7666H197.406V8.0897C197.716 7.3608 198.244 6.7414 198.991 6.2312C199.757 5.721 200.668 5.466 201.724 5.466ZM206.31 9.5381C206.31 9.9936 206.537 10.3307 206.993 10.5494C207.467 10.7498 208.223 10.9775 209.261 11.2326C210.318 11.4695 211.193 11.7246 211.885 11.9979C212.577 12.2529 213.169 12.6629 213.661 13.2277C214.172 13.7925 214.427 14.5578 214.427 15.5234C214.427 16.398 214.172 17.1632 213.661 17.8192C213.151 18.4569 212.459 18.9488 211.584 19.295C210.728 19.623 209.78 19.7869 208.742 19.7869C207.339 19.7869 206.136 19.5136 205.134 18.967C204.132 18.4022 203.403 17.6187 202.948 16.6166L205.298 15.3868C205.572 16.0791 206 16.5984 206.583 16.9446C207.184 17.2726 207.904 17.4365 208.742 17.4365C209.525 17.4365 210.2 17.2726 210.764 16.9446C211.347 16.6166 211.639 16.152 211.639 15.5508C211.639 15.0224 211.375 14.6398 210.846 14.4029C210.336 14.1478 209.525 13.8836 208.414 13.6103C207.339 13.337 206.474 13.0819 205.818 12.8451C205.18 12.59 204.624 12.2074 204.15 11.6972C203.677 11.1688 203.44 10.4765 203.44 9.6201C203.44 8.782 203.677 8.0441 204.15 7.4064C204.624 6.7687 205.262 6.2768 206.064 5.9306C206.865 5.5844 207.758 5.4113 208.742 5.4113C209.908 5.4113 210.947 5.6664 211.858 6.1765C212.787 6.6685 213.497 7.3608 213.989 8.2536L211.639 9.4288C211.129 8.3174 210.163 7.7617 208.742 7.7617C207.995 7.7617 207.403 7.9257 206.965 8.2536C206.528 8.5634 206.31 8.9915 206.31 9.5381Z" fill="white"/>
</svg>
