<svg width="100" height="100" viewBox="0 0 100 100" fill="none" xmlns="http://www.w3.org/2000/svg">
<rect width="100" height="100" fill="#FF7629"/>
<path d="M42.608 23C31.3128 23 22.1832 32.1559 22.1832 43.4248V43.7142C23.323 43.6966 24.1275 43.5519 24.796 43.3393C25.4207 43.1399 25.9556 42.8746 26.5934 42.5371C26.8198 38.4432 28.6054 34.5915 31.5835 31.7733C34.5615 28.9551 38.5057 27.3844 42.6058 27.3839H56.9062C65.4571 27.3839 72.4627 34.1002 72.9427 42.5436C73.574 42.879 74.1045 43.142 74.7226 43.3393C75.3934 43.5541 76.2022 43.6988 77.353 43.7142V43.4204C77.3311 32.1537 68.1818 23 56.9084 23H42.608ZM73.7143 51.6206C73.2073 51.506 72.7056 51.3692 72.2106 51.2107C70.9217 50.7986 69.7118 50.1914 68.5851 49.6259C68.2554 49.4588 67.9244 49.2944 67.5921 49.1327C66.5992 48.6549 65.5689 48.3151 63.6751 48.3151C62.2547 48.3151 61.0315 48.6088 59.7865 49.1502C59.3388 49.3532 58.8986 49.5726 58.4669 49.8078L58.4384 49.821C57.9737 50.0665 57.4586 50.3383 56.8909 50.5948C55.7167 51.1333 54.4795 51.5221 53.2084 51.7521H73.7143V51.6206ZM24.6711 55.8796L40.4138 59.4087C46.5448 60.7852 52.9256 60.7852 59.0588 59.4087L74.8015 55.8796H75.3386C77.4713 55.8796 79.3389 57.7691 79.3389 60.2636C79.3389 62.758 77.4713 64.6475 75.3386 64.6475H24.156C22.0232 64.6475 20.1556 62.758 20.1556 60.2636C20.1556 57.7691 22.0232 55.8796 24.156 55.8796H24.6711ZM46.3322 51.7521H25.778V51.6754C28.0007 51.2151 29.5438 50.3975 30.8656 49.6895L30.9094 49.6676C31.6942 49.2467 32.3013 48.9245 33.0269 48.6921C33.7371 48.4664 34.6051 48.3151 35.8633 48.3151C37.1237 48.3151 37.9873 48.4664 38.6953 48.6921C39.4187 48.9223 40.0215 49.2423 40.804 49.6632L40.8522 49.6873C42.2507 50.4391 43.8947 51.3093 46.3322 51.7521Z" fill="white"/>
<path d="M56.7769 31.2681C56.7769 31.7169 56.5987 32.1473 56.2813 32.4647C55.964 32.782 55.5335 32.9603 55.0847 32.9603C54.6359 32.9603 54.2055 32.782 53.8882 32.4647C53.5708 32.1473 53.3925 31.7169 53.3925 31.2681C53.3925 30.8193 53.5708 30.3889 53.8882 30.0716C54.2055 29.7542 54.6359 29.5759 55.0847 29.5759C55.5335 29.5759 55.964 29.7542 56.2813 30.0716C56.5987 30.3889 56.7769 30.8193 56.7769 31.2681ZM44.4098 32.9581C44.637 32.9663 44.8635 32.9286 45.0759 32.8473C45.2882 32.766 45.4819 32.6428 45.6456 32.4849C45.8092 32.3271 45.9393 32.1379 46.0282 31.9287C46.1171 31.7194 46.1629 31.4944 46.1629 31.267C46.1629 31.0397 46.1171 30.8147 46.0282 30.6054C45.9393 30.3962 45.8092 30.207 45.6456 30.0491C45.4819 29.8913 45.2882 29.768 45.0759 29.6867C44.8635 29.6054 44.637 29.5677 44.4098 29.5759C43.9718 29.5917 43.5571 29.7768 43.2528 30.0922C42.9485 30.4076 42.7785 30.8288 42.7785 31.267C42.7785 31.7053 42.9485 32.1265 43.2528 32.4419C43.5571 32.7573 43.9718 32.9424 44.4098 32.9581ZM62.6646 36.0116C62.6646 36.4604 62.4863 36.8908 62.1689 37.2081C61.8516 37.5255 61.4212 37.7038 60.9724 37.7038C60.5236 37.7038 60.0932 37.5255 59.7758 37.2081C59.4585 36.8908 59.2802 36.4604 59.2802 36.0116C59.2802 35.5628 59.4585 35.1323 59.7758 34.815C60.0932 34.4976 60.5236 34.3194 60.9724 34.3194C61.4212 34.3194 61.8516 34.4976 62.1689 34.815C62.4863 35.1323 62.6646 35.5628 62.6646 36.0116ZM38.5222 37.7038C38.7494 37.7119 38.9759 37.6743 39.1882 37.593C39.4005 37.5117 39.5943 37.3884 39.7579 37.2306C39.9215 37.0727 40.0517 36.8835 40.1406 36.6743C40.2295 36.465 40.2753 36.24 40.2753 36.0127C40.2753 35.7853 40.2295 35.5603 40.1406 35.351C40.0517 35.1418 39.9215 34.9526 39.7579 34.7947C39.5943 34.6369 39.4005 34.5137 39.1882 34.4324C38.9759 34.351 38.7494 34.3134 38.5222 34.3215C38.0842 34.3373 37.6694 34.5224 37.3652 34.8378C37.0609 35.1532 36.8909 35.5744 36.8909 36.0127C36.8909 36.4509 37.0609 36.8721 37.3652 37.1875C37.6694 37.5029 38.0842 37.688 38.5222 37.7038ZM49.7473 39.6371C50.1961 39.6371 50.6265 39.4588 50.9438 39.1414C51.2612 38.8241 51.4395 38.3937 51.4395 37.9449C51.4395 37.4961 51.2612 37.0657 50.9438 36.7483C50.6265 36.431 50.1961 36.2527 49.7473 36.2527C49.2985 36.2527 48.8681 36.431 48.5507 36.7483C48.2334 37.0657 48.0551 37.4961 48.0551 37.9449C48.0551 38.3937 48.2334 38.8241 48.5507 39.1414C48.8681 39.4588 49.2985 39.6371 49.7473 39.6371ZM22.4901 69.4172V66.5984C23.0183 66.754 23.5751 66.8373 24.156 66.8373H26.874V69.4151C26.874 71.8196 28.6057 73.4132 30.3286 73.4132H69.1221C70.8472 73.4132 72.6008 71.8131 72.6183 69.3822V66.8395H75.3364C75.9173 66.8395 76.4762 66.7562 77.0023 66.6006V69.4063C76.9738 73.8604 73.6332 77.7994 69.1243 77.7994H30.3264C25.8109 77.7994 22.4879 73.8538 22.4879 69.4172H22.4901ZM35.8633 42.1798C31.92 42.1798 29.842 43.2845 27.9919 44.2753L27.9152 44.3148C27.1612 44.7181 26.394 45.1302 25.4624 45.4261C24.5023 45.733 23.4063 45.9083 21.9596 45.9083C20.8812 45.9083 20 46.7851 20 47.8811C20 48.9727 20.8812 49.8517 21.9596 49.8517C25.903 49.8517 27.981 48.7469 29.831 47.7562L29.9077 47.7167C30.6618 47.3134 31.429 46.9013 32.3627 46.6054C33.3206 46.2985 34.4166 46.1231 35.8633 46.1231C37.31 46.1231 38.4016 46.2985 39.3617 46.6054C40.2911 46.8991 41.0561 47.3112 41.8079 47.7145L41.8869 47.7562C43.7369 48.7469 45.8149 49.8517 49.7692 49.8517C52.6319 49.8517 54.5039 49.2708 55.9856 48.5979C56.4942 48.3677 56.9611 48.1222 57.4367 47.8723L57.4477 47.8658C57.9168 47.6203 58.4078 47.3616 58.9119 47.1424C60.4089 46.4695 62.0317 46.1221 63.6729 46.1231C65.9109 46.1231 67.2677 46.5418 68.5456 47.1599C68.938 47.3484 69.3128 47.537 69.6789 47.7211C70.7683 48.2691 71.7678 48.7688 72.8792 49.1239C74.3908 49.6096 75.9692 49.8552 77.5569 49.8517C78.6353 49.8517 79.5165 48.9749 79.5165 47.8789C79.5165 46.7873 78.6353 45.9061 77.5569 45.9061C76.1101 45.9061 75.0185 45.733 74.0585 45.4283C73.1291 45.1302 72.3641 44.7203 71.6144 44.3169L71.5377 44.2753C70.5403 43.7405 69.5277 43.2012 68.2169 42.8001C67.031 42.4384 65.5755 42.1798 63.6751 42.1798C61.7724 42.1798 60.317 42.4384 59.1311 42.8001C58.079 43.1223 57.1364 43.5695 56.1237 44.0495C55.7138 44.2424 55.293 44.4441 54.8502 44.6414C53.3596 45.3077 51.7157 45.9083 49.7692 45.9083C48.3159 45.9083 47.2177 45.733 46.2555 45.4261C45.3217 45.128 44.5545 44.7181 43.8026 44.3148L43.7303 44.2753C41.8825 43.2845 39.8067 42.1798 35.8633 42.1798ZM26.0564 53.9441H73.4162L58.5787 57.2693C52.7552 58.574 46.7152 58.574 40.8917 57.2693L26.0564 53.9441Z" fill="white"/>
</svg>
